<svg xmlns="http://www.w3.org/2000/svg" id="graph" width="1512" height="1051.5"><script type="application/json"><![CDATA[{
  "name": "ElasticSearch Indexer",
  "description": "Component diagram for the Elasticsearch Indexer",
  "elements": [
    {
      "id": "1c1foek",
      "tags": "Element,Database,Container"
    },
    {
      "id": "5roj5e",
      "tags": "Element,Component"
    },
    {
      "id": "d247gf",
      "tags": "Element,Component"
    },
    {
      "id": "km6zjd",
      "tags": "Element,Database,Container"
    }
  ],
  "layout": {
    "1c1foek": {
      "x": 400.5,
      "y": 881.5
    },
    "5roj5e": {
      "x": 400.5,
      "y": 400.5
    },
    "d247gf": {
      "x": 851.5,
      "y": 400.5
    },
    "km6zjd": {
      "x": 851.5,
      "y": 881.5
    },
    "e-10uxia2": [
      {
        "x": 400.5,
        "y": 641,
        "label": true
      }
    ],
    "e-157m6vt": [
      {
        "x": 851.5,
        "y": 641,
        "label": true
      }
    ]
  }
}]]></script>
<defs>
	<marker id="arrow" viewBox="0 0 5 5" refX="4" refY="2.5" markerWidth="5" markerHeight="5" orient="auto" markerUnits="strokeWidth">
		<path fill="#aaa" stroke-width="1" stroke="none" d="M0,0 L5,2.5 L0,5 Z" class="arrowHead"></path>
	</marker>
	<g id="icon-circle" transform="translate(0,-12)" class="icon">
		<circle cx="7" cy="7" r="7"></circle>
	</g>
	<g id="icon-cube" transform="translate(0, -14)" class="icon">
		<path d="M 5 0 h 10 v 10 l -5 5 h -10 v -10 l 5 -5 M 0 5 h 10 v 10 M 15 0 l -5 5"></path>
	</g>
	<filter id="shadow">
		<feDropShadow dx="3" dy="3" stdDeviation="5" flood-color="#00000030" flood-opacity="1"></feDropShadow>
	</filter>
</defs><g class="zoom" transform="scale(1)"><g class="groups"></g><g class="edges"><g class="edge" id="10uxia2" data-from="5roj5e" data-to="1c1foek"><rect x="306.5625" y="622.5" rx="0" ry="0" width="187.875" height="37" fill="none" stroke="none"></rect><text x="0" y="622.5" text-anchor="middle" font-family="Arial, sans-serif" stroke="none" font-size="22" fill="#999" data-field="label"><tspan x="400.5" dy="24px" font-size="22px" font-weight="normal">Writes records to</tspan></text><path marker-end="url(#arrow)" class="edge" d="M400.5,550.5 L400.5,622.5 M400.5000000127497,659.5 L400.5000000623701,731.5" fill="none" stroke="#999" stroke-width="3" stroke-linecap="round" stroke-dasharray="8"></path><circle id="v-2qcuxuq" cx="400.5" cy="641" r="7" fill="none" class="v-dot"></circle></g><g class="edge" id="157m6vt" data-from="d247gf" data-to="km6zjd"><rect x="752.45703125" y="610.5" rx="0" ry="0" width="198.0859375" height="61" fill="none" stroke="none"></rect><text x="0" y="610.5" text-anchor="middle" font-family="Arial, sans-serif" stroke="none" font-size="22" fill="#999" data-field="label"><tspan x="851.5" dy="24px" font-size="22px" font-weight="normal">Consumes events</tspan><tspan x="851.5" dy="24px" font-size="22px" font-weight="normal">from</tspan></text><path marker-end="url(#arrow)" class="edge" d="M851.5,550.5 L851.5,610.5 M851.5000000210198,671.5 L851.5000000623701,731.5" fill="none" stroke="#999" stroke-width="3" stroke-linecap="round" stroke-dasharray="8"></path><circle id="v-34z2xh9" cx="851.5" cy="641" r="7" fill="none" class="v-dot"></circle></g></g><g class="nodes"><g class="node" id="1c1foek" transform="translate(400.5,881.5)" label-offset-y="44.21052631578947"><path d="M 0,22.105263157894736 a150,22.105263157894736 0,0,0 300 0 a 150,22.105263157894736 0,0,0 -300 0 l 0,255.78947368421052 a 150,22.105263157894736 0,0,0 300 0 l 0,-255.78947368421052" transform="translate(-150,-150)" class="nodeBorder" fill="#438dd5" stroke="#999" filter="url(#shadow)" stroke-width="4.3" opacity="0.9"></path><g transform="translate(0,-92.10526315789474)"><text x="0" y="44.21052631578947" text-anchor="middle" font-family="Arial, sans-serif" stroke="none" fill="#ffffff" data-field="name"><tspan x="0" dy="24px" font-size="22px" font-weight="bold">ElasticSearch</tspan></text><text x="0" y="92.21052631578948" text-anchor="middle" font-family="Arial, sans-serif" stroke="none" fill="#ffffff" font-size="16.5">[Container: ElasticSearch 7.x]</text><text x="0" y="112.21052631578948" text-anchor="middle" font-family="Arial, sans-serif" stroke="none" fill="#ffffff" data-field="description"><tspan x="0" dy="24px" font-size="22px" font-weight="normal">Stores searchable Task</tspan><tspan x="0" dy="24px" font-size="22px" font-weight="normal">records</tspan></text></g></g><g class="node" id="5roj5e" transform="translate(400.5,400.5)"><rect rx="3" ry="3" x="-150" y="-150" width="300" height="300" class="nodeBorder" fill="#85bbf0" stroke="#999" filter="url(#shadow)" stroke-width="4.3" opacity="0.9"></rect><g transform="translate(0,-70)"><text x="0" y="0" text-anchor="middle" font-family="Arial, sans-serif" stroke="none" fill="#000000" data-field="name"><tspan x="0" dy="24px" font-size="22px" font-weight="bold">internal.elasticsearch</tspan></text><text x="0" y="48" text-anchor="middle" font-family="Arial, sans-serif" stroke="none" fill="#000000" font-size="16.5">[Component: Go Binary]</text><text x="0" y="68" text-anchor="middle" font-family="Arial, sans-serif" stroke="none" fill="#000000" data-field="description"><tspan x="0" dy="24px" font-size="22px" font-weight="normal">interacts with</tspan><tspan x="0" dy="24px" font-size="22px" font-weight="normal">ElasticSearch</tspan></text></g></g><g class="node" id="d247gf" transform="translate(851.5,400.5)"><rect rx="3" ry="3" x="-150" y="-150" width="300" height="300" class="nodeBorder" fill="#85bbf0" stroke="#999" filter="url(#shadow)" stroke-width="4.3" opacity="0.9"></rect><g transform="translate(0,-58)"><text x="0" y="0" text-anchor="middle" font-family="Arial, sans-serif" stroke="none" fill="#000000" data-field="name"><tspan x="0" dy="24px" font-size="22px" font-weight="bold">internal.kafka</tspan></text><text x="0" y="48" text-anchor="middle" font-family="Arial, sans-serif" stroke="none" fill="#000000" font-size="16.5">[Component: Go 1.16]</text><text x="0" y="68" text-anchor="middle" font-family="Arial, sans-serif" stroke="none" fill="#000000" data-field="description"><tspan x="0" dy="24px" font-size="22px" font-weight="normal">interacts with Kafka</tspan></text></g></g><g class="node" id="km6zjd" transform="translate(851.5,881.5)" label-offset-y="44.21052631578947"><path d="M 0,22.105263157894736 a150,22.105263157894736 0,0,0 300 0 a 150,22.105263157894736 0,0,0 -300 0 l 0,255.78947368421052 a 150,22.105263157894736 0,0,0 300 0 l 0,-255.78947368421052" transform="translate(-150,-150)" class="nodeBorder" fill="#438dd5" stroke="#999" filter="url(#shadow)" stroke-width="4.3" opacity="0.9"></path><g transform="translate(0,-80.10526315789474)"><text x="0" y="44.21052631578947" text-anchor="middle" font-family="Arial, sans-serif" stroke="none" fill="#ffffff" data-field="name"><tspan x="0" dy="24px" font-size="22px" font-weight="bold">Kafka</tspan></text><text x="0" y="92.21052631578948" text-anchor="middle" font-family="Arial, sans-serif" stroke="none" fill="#ffffff" font-size="16.5">[Container: Kafka 2.13]</text><text x="0" y="112.21052631578948" text-anchor="middle" font-family="Arial, sans-serif" stroke="none" fill="#ffffff" data-field="description"><tspan x="0" dy="24px" font-size="22px" font-weight="normal">Streams Task events</tspan></text></g></g></g></g></svg>